<?xml version="1.0" encoding="UTF-8"?>
<svg xmlns="http://www.w3.org/2000/svg" width="202" height="22" viewBox="0 0 202 22" fill="none">
  <path d="M4.81902 21.7097C4.81902 21.8701 4.95026 21.9999 5.11066 21.9999H17.4776C19.2041 21.9838 20.9116 21.5872 22.4471 20.794C24.595 19.7018 26.3594 17.8747 27.3889 15.6976C28.745 12.8497 28.8019 9.43756 27.4939 6.56201C26.5738 4.53366 25.0427 2.79404 23.1339 1.64207C21.3491 0.552797 19.2449 -0.0363122 17.1524 0.00160076C14.3527 -0.00131562 6.68259 0.00889172 5.09316 0.0103499C4.93276 0.0103499 4.80298 0.141587 4.80298 0.301988V5.2438C4.80298 5.47857 5.064 5.6171 5.25794 5.48586C6.22764 4.8253 8.47763 3.29274 9.32192 2.71238C9.56106 2.55781 9.84103 2.35366 10.1283 2.31721C10.4579 2.39595 10.7641 2.64239 11.0455 2.82612C11.3838 3.06526 11.7469 3.27232 12.0662 3.53334C12.3156 3.70103 12.3491 4.12974 12.1231 4.3266C11.8402 4.58761 11.4903 4.78301 11.1709 4.99737C7.86519 7.19194 4.56967 9.40694 1.26104 11.5986C0.902321 11.8465 0.508609 12.0638 0.180516 12.351C-0.0250893 12.5114 -0.0484203 12.822 0.0726096 13.0378C0.278215 13.293 0.597559 13.4695 0.86295 13.6576C1.23041 13.8953 1.59205 14.1811 1.99596 14.3546C2.25115 14.4581 2.46113 14.3225 2.67694 14.1986C6.50178 11.6321 10.3616 9.07447 14.1952 6.51097C14.5262 6.2937 14.8572 6.03122 15.2232 5.87811C15.4405 5.77021 15.6446 5.93061 15.8342 6.02685C16.2512 6.28641 16.6537 6.57075 17.0649 6.84198C17.2953 7.01404 17.5797 7.17445 17.5563 7.50546C17.5563 7.77668 17.2734 7.95604 17.081 8.1004C13.8 10.2731 6.58489 15.142 5.08004 16.1584C4.90506 16.2765 4.80153 16.4733 4.80298 16.6833L4.81757 21.7082L4.81902 21.7097ZM22.6498 11.4017C22.3567 11.6526 22.0111 11.8465 21.6932 12.0638C18.0055 14.5223 14.3075 16.9793 10.627 19.4451C10.4214 19.5589 10.172 19.7499 9.93144 19.6332C9.58877 19.4918 9.27817 19.2454 8.96612 19.0441C8.67157 18.84 8.34639 18.6577 8.081 18.4156C7.85206 18.2275 7.86081 17.8528 8.08246 17.6618C8.34202 17.4168 8.66719 17.2331 8.96466 17.0347C12.718 14.5529 16.486 12.0229 20.235 9.52797C20.4363 9.41423 20.6258 9.31361 20.8577 9.41714C21.212 9.57171 21.5314 9.82544 21.8565 10.0354C22.1292 10.2235 22.4311 10.3941 22.676 10.6216C22.905 10.8141 22.8904 11.2238 22.6498 11.4017Z" fill="#D6E16D"></path>
  <path d="M173.835 0.749645H155.596C155.435 0.749645 155.304 0.880216 155.304 1.04128V4.45054C155.304 4.6116 155.435 4.74217 155.596 4.74217H173.835C173.996 4.74217 174.127 4.6116 174.127 4.45054V1.04128C174.127 0.880216 173.996 0.749645 173.835 0.749645Z" fill="#D6E16D"></path>
  <path d="M173.835 9.26402H155.596C155.435 9.26402 155.304 9.39459 155.304 9.55566V12.9649C155.304 13.126 155.435 13.2566 155.596 13.2566H173.835C173.996 13.2566 174.127 13.126 174.127 12.9649V9.55566C174.127 9.39459 173.996 9.26402 173.835 9.26402Z" fill="#D6E16D"></path>
  <path d="M173.835 17.7857H155.596C155.435 17.7857 155.304 17.9163 155.304 18.0774V21.4866C155.304 21.6477 155.435 21.7783 155.596 21.7783H173.835C173.996 21.7783 174.127 21.6477 174.127 21.4866V18.0774C174.127 17.9163 173.996 17.7857 173.835 17.7857Z" fill="#D6E16D"></path>
  <path d="M31.8306 21.7651C31.5885 21.7651 31.3931 21.5697 31.3931 21.3276V1.0442C31.3931 0.883797 31.5244 0.75256 31.6848 0.75256H49.8436C50.004 0.75256 50.1353 0.883797 50.1353 1.0442V4.45637C50.1353 4.61677 50.004 4.74801 49.8436 4.74801H36.106C36.0652 4.74801 36.0331 4.78009 36.0331 4.82092V8.67054C36.0331 8.71137 36.0652 8.74345 36.106 8.74345H49.1991C49.3595 8.74345 49.4907 8.87469 49.4907 9.03509V12.3437C49.4907 12.5041 49.3595 12.6354 49.1991 12.6354H36.106C36.0652 12.6354 36.0331 12.6674 36.0331 12.7083V17.6676C36.0331 17.7084 36.0652 17.7405 36.106 17.7405H49.8436C50.004 17.7405 50.1353 17.8717 50.1353 18.0321V21.4706C50.1353 21.631 50.004 21.7622 49.8436 21.7622H31.8306V21.7651Z" fill="#D6E16D"></path>
  <path d="M110.286 21.7651C110.044 21.7651 109.848 21.5697 109.848 21.3276V1.0442C109.848 0.883797 109.979 0.75256 110.14 0.75256H128.299C128.459 0.75256 128.59 0.883797 128.59 1.0442V4.45637C128.59 4.61677 128.459 4.74801 128.299 4.74801H114.561C114.52 4.74801 114.488 4.78009 114.488 4.82092V8.67054C114.488 8.71137 114.52 8.74345 114.561 8.74345H127.654C127.815 8.74345 127.946 8.87469 127.946 9.03509V12.3437C127.946 12.5041 127.815 12.6354 127.654 12.6354H114.561C114.52 12.6354 114.488 12.6674 114.488 12.7083V17.6676C114.488 17.7084 114.52 17.7405 114.561 17.7405H128.299C128.459 17.7405 128.59 17.8717 128.59 18.0321V21.4706C128.59 21.631 128.459 21.7622 128.299 21.7622H110.286V21.7651Z" fill="#D6E16D"></path>
  <path d="M53.8595 0.75256H57.9176C58.0781 0.75256 58.2093 0.883797 58.2093 1.0442V17.3074C58.2093 17.3482 58.2414 17.3803 58.2822 17.3803H71.9425C72.1029 17.3803 72.2342 17.5116 72.2342 17.672V21.4705C72.2342 21.6309 72.1029 21.7622 71.9425 21.7622H53.861C53.7006 21.7622 53.5693 21.6309 53.5693 21.4705V1.0442C53.5693 0.883797 53.6991 0.75256 53.8595 0.75256Z" fill="#D6E16D"></path>
  <path d="M75.2307 0.75256H79.2889C79.4493 0.75256 79.5805 0.883797 79.5805 1.0442V21.4735C79.5805 21.6339 79.4493 21.7651 79.2889 21.7651H75.2307C75.0703 21.7651 74.9391 21.6339 74.9391 21.4735V1.0442C74.9391 0.883797 75.0703 0.75256 75.2307 0.75256Z" fill="#D6E16D"></path>
  <path d="M94.788 18.0263L102.677 0.923168C102.725 0.819636 102.828 0.754018 102.942 0.754018H107.066C107.28 0.754018 107.42 0.975663 107.33 1.1696L97.7292 21.5989C97.6811 21.7009 97.579 21.7666 97.4653 21.7666H92.035C91.9212 21.7666 91.8191 21.7009 91.771 21.5989L82.1951 1.16814C82.1047 0.974205 82.2461 0.75256 82.459 0.75256H86.6353C86.749 0.75256 86.8525 0.818178 86.9007 0.92171L94.788 18.0248V18.0263Z" fill="#D6E16D"></path>
  <path d="M142.067 13.5147H135.814C135.773 13.5147 135.741 13.5467 135.741 13.5876V21.4735C135.741 21.6339 135.61 21.7651 135.45 21.7651H131.392C131.231 21.7651 131.1 21.6339 131.1 21.4735V1.0442C131.1 0.883797 131.231 0.75256 131.392 0.75256H142.289C149.352 0.75256 151.749 2.99526 151.749 7.01841V7.32755C151.749 10.2148 150.383 12.2256 146.8 13.0509L151.816 21.3218C151.935 21.5158 151.795 21.7651 151.567 21.7651H147.096C146.993 21.7651 146.897 21.7097 146.844 21.6207L142.128 13.5511C142.115 13.5292 142.092 13.5147 142.066 13.5147H142.067ZM135.741 4.76988V9.59941C135.741 9.64024 135.773 9.67232 135.814 9.67232H142.599C145.745 9.67232 147.085 9.18237 147.085 7.22402V7.12048C147.085 5.16067 145.745 4.69697 142.599 4.69697H135.814C135.773 4.69697 135.741 4.72905 135.741 4.76988Z" fill="#D6E16D"></path>
  <path d="M194.988 16.867H183.128L181.012 21.593C180.966 21.698 180.861 21.7651 180.745 21.7651H176.668C176.457 21.7651 176.315 21.5464 176.403 21.3524L185.679 0.923168C185.725 0.819637 185.83 0.75256 185.944 0.75256H192.192C192.306 0.75256 192.41 0.819637 192.458 0.923168L201.783 21.3524C201.87 21.5449 201.73 21.7651 201.517 21.7651H197.366C197.251 21.7651 197.147 21.698 197.099 21.593L194.983 16.867H194.986H194.988ZM193.233 12.9751L189.056 3.6427L184.879 12.9751H193.233Z" fill="#D6E16D"></path>
</svg>
