<?xml version="1.0" encoding="UTF-8"?>
<svg xmlns="http://www.w3.org/2000/svg" version="1.1" viewBox="0 0 500 512">
  <defs>
    <style>
      .st0 {
        fill: #d6e16d;
      }

      .st1 {
        fill: #152642;
      }
    </style>
  </defs>
  <g id="Capa_2">
    <rect class="st1" width="500" height="512"></rect>
  </g>
  <g id="Capa_1">
    <path class="st0" d="M127.2,395.9c0,2.1,1.7,3.8,3.8,3.8h161.5c22.5-.2,44.9-5.4,64.9-15.7,28.1-14.3,51.1-38.1,64.5-66.6,17.7-37.2,18.5-81.8,1.4-119.3-12-26.5-32-49.2-56.9-64.3-23.3-14.2-50.8-21.9-78.1-21.4-36.6,0-136.7,0-157.5.1-2.1,0-3.8,1.7-3.8,3.8v64.5c0,3.1,3.4,4.9,5.9,3.2,12.7-8.6,42.1-28.6,53.1-36.2,3.1-2,6.8-4.7,10.5-5.2,4.3,1,8.3,4.2,12,6.6,4.4,3.1,9.2,5.8,13.3,9.2,3.3,2.2,3.7,7.8.7,10.4-3.7,3.4-8.3,6-12.4,8.8-43.2,28.7-86.2,57.6-129.4,86.2-4.7,3.2-9.8,6.1-14.1,9.8-2.7,2.1-3,6.2-1.4,9,2.7,3.3,6.9,5.6,10.3,8.1,4.8,3.1,9.5,6.8,14.8,9.1,3.3,1.4,6.1-.4,8.9-2,50-33.5,100.4-66.9,150.4-100.4,4.3-2.8,8.6-6.3,13.4-8.3,2.8-1.4,5.5.7,8,1.9,5.4,3.4,10.7,7.1,16.1,10.6,3,2.2,6.7,4.3,6.4,8.7,0,3.5-3.7,5.9-6.2,7.8-42.9,28.4-137.1,92-156.7,105.2-2.3,1.5-3.6,4.1-3.6,6.9l.2,65.6h0ZM360.1,261.2c-3.8,3.3-8.3,5.8-12.5,8.6-48.2,32.1-96.5,64.2-144.5,96.4-2.7,1.5-5.9,4-9.1,2.5-4.5-1.8-8.5-5.1-12.6-7.7-3.8-2.7-8.1-5-11.6-8.2-3-2.5-2.9-7.4,0-9.8,3.4-3.2,7.6-5.6,11.5-8.2,49-32.4,98.2-65.5,147.2-98,2.6-1.5,5.1-2.8,8.1-1.4,4.6,2,8.8,5.3,13,8.1,3.6,2.5,7.5,4.7,10.7,7.7,3,2.5,2.8,7.9-.3,10.2Z"></path>
  </g>
</svg>
