<svg width="100" height="100" viewBox="0 0 100 100" fill="none" xmlns="http://www.w3.org/2000/svg">
<rect width="100" height="100" rx="14" fill="url(#paint0_linear_90019_94)"/>
<g filter="url(#filter0_ddi_90019_94)">
<mask id="path-2-inside-1_90019_94" fill="white">
<path d="M20.7163 65V35.84H27.8763V65H20.7163ZM32.9819 65V35.84H40.1419V58.64H52.7019V65H32.9819ZM56.1069 65V35.84H71.4669C74.4269 35.84 76.7869 36.52 78.5469 37.88C80.3335 39.2133 81.2269 41.24 81.2269 43.96C81.2269 45.7467 80.7335 47.2667 79.7469 48.52C78.7869 49.7467 77.4802 50.5733 75.8269 51V51.28C77.5069 51.5733 78.7202 52.1867 79.4669 53.12C80.2402 54.0267 80.6269 55.2933 80.6269 56.92V61.6C80.6269 62.1333 80.6402 62.6933 80.6669 63.28C80.7202 63.8667 80.8802 64.44 81.1469 65H73.9069C73.7469 64.6533 73.6269 64.1867 73.5469 63.6C73.4669 63.0133 73.4269 62.3467 73.4269 61.6V58.16C73.4269 57.0667 73.1469 56.2133 72.5869 55.6C72.0535 54.96 70.9735 54.64 69.3469 54.64H63.2669V65H56.1069ZM69.7069 41.72H63.2669V49H69.7069C71.2002 49 72.2669 48.6533 72.9069 47.96C73.5469 47.24 73.8669 46.3467 73.8669 45.28C73.8669 43.9733 73.4802 43.0533 72.7069 42.52C71.9335 41.9867 70.9335 41.72 69.7069 41.72Z"/>
</mask>
<path d="M20.7163 65V35.84H27.8763V65H20.7163ZM32.9819 65V35.84H40.1419V58.64H52.7019V65H32.9819ZM56.1069 65V35.84H71.4669C74.4269 35.84 76.7869 36.52 78.5469 37.88C80.3335 39.2133 81.2269 41.24 81.2269 43.96C81.2269 45.7467 80.7335 47.2667 79.7469 48.52C78.7869 49.7467 77.4802 50.5733 75.8269 51V51.28C77.5069 51.5733 78.7202 52.1867 79.4669 53.12C80.2402 54.0267 80.6269 55.2933 80.6269 56.92V61.6C80.6269 62.1333 80.6402 62.6933 80.6669 63.28C80.7202 63.8667 80.8802 64.44 81.1469 65H73.9069C73.7469 64.6533 73.6269 64.1867 73.5469 63.6C73.4669 63.0133 73.4269 62.3467 73.4269 61.6V58.16C73.4269 57.0667 73.1469 56.2133 72.5869 55.6C72.0535 54.96 70.9735 54.64 69.3469 54.64H63.2669V65H56.1069ZM69.7069 41.72H63.2669V49H69.7069C71.2002 49 72.2669 48.6533 72.9069 47.96C73.5469 47.24 73.8669 46.3467 73.8669 45.28C73.8669 43.9733 73.4802 43.0533 72.7069 42.52C71.9335 41.9867 70.9335 41.72 69.7069 41.72Z" fill="black"/>
<path d="M20.7163 65H19.7163V66H20.7163V65ZM20.7163 35.84V34.84H19.7163V35.84H20.7163ZM27.8763 35.84H28.8763V34.84H27.8763V35.84ZM27.8763 65V66H28.8763V65H27.8763ZM20.7163 65H21.7163V35.84H20.7163H19.7163V65H20.7163ZM20.7163 35.84V36.84H27.8763V35.84V34.84H20.7163V35.84ZM27.8763 35.84H26.8763V65H27.8763H28.8763V35.84H27.8763ZM27.8763 65V64H20.7163V65V66H27.8763V65ZM32.9819 65H31.9819V66H32.9819V65ZM32.9819 35.84V34.84H31.9819V35.84H32.9819ZM40.1419 35.84H41.1419V34.84H40.1419V35.84ZM40.1419 58.64H39.1419V59.64H40.1419V58.64ZM52.7019 58.64H53.7019V57.64H52.7019V58.64ZM52.7019 65V66H53.7019V65H52.7019ZM32.9819 65H33.9819V35.84H32.9819H31.9819V65H32.9819ZM32.9819 35.84V36.84H40.1419V35.84V34.84H32.9819V35.84ZM40.1419 35.84H39.1419V58.64H40.1419H41.1419V35.84H40.1419ZM40.1419 58.64V59.64H52.7019V58.64V57.64H40.1419V58.64ZM52.7019 58.64H51.7019V65H52.7019H53.7019V58.64H52.7019ZM52.7019 65V64H32.9819V65V66H52.7019V65ZM56.1069 65H55.1069V66H56.1069V65ZM56.1069 35.84V34.84H55.1069V35.84H56.1069ZM78.5469 37.88L77.9354 38.6713L77.9421 38.6764L77.9488 38.6814L78.5469 37.88ZM79.7469 48.52L78.9611 47.9014L78.9594 47.9037L79.7469 48.52ZM75.8269 51L75.577 50.0317L74.8269 50.2253V51H75.8269ZM75.8269 51.28H74.8269V52.1205L75.6549 52.2651L75.8269 51.28ZM79.4669 53.12L78.686 53.7447L78.6958 53.757L78.706 53.7689L79.4669 53.12ZM80.6669 63.28L79.6679 63.3254L79.6689 63.348L79.671 63.3705L80.6669 63.28ZM81.1469 65V66H82.7307L82.0497 64.5701L81.1469 65ZM73.9069 65L72.9989 65.4191L73.267 66H73.9069V65ZM73.5469 63.6L72.556 63.7351L72.556 63.7351L73.5469 63.6ZM72.5869 55.6L71.8187 56.2402L71.8331 56.2576L71.8484 56.2743L72.5869 55.6ZM63.2669 54.64V53.64H62.2669V54.64H63.2669ZM63.2669 65V66H64.2669V65H63.2669ZM63.2669 41.72V40.72H62.2669V41.72H63.2669ZM63.2669 49H62.2669V50H63.2669V49ZM72.9069 47.96L73.6417 48.6383L73.648 48.6314L73.6543 48.6244L72.9069 47.96ZM72.7069 42.52L73.2746 41.6968L73.2746 41.6968L72.7069 42.52ZM56.1069 65H57.1069V35.84H56.1069H55.1069V65H56.1069ZM56.1069 35.84V36.84H71.4669V35.84V34.84H56.1069V35.84ZM71.4669 35.84V36.84C74.2786 36.84 76.4007 37.4853 77.9354 38.6713L78.5469 37.88L79.1583 37.0887C77.1731 35.5547 74.5752 34.84 71.4669 34.84V35.84ZM78.5469 37.88L77.9488 38.6814C79.4261 39.7839 80.2269 41.4779 80.2269 43.96H81.2269H82.2269C82.2269 41.0021 81.241 38.6428 79.145 37.0786L78.5469 37.88ZM81.2269 43.96H80.2269C80.2269 45.5507 79.7924 46.8455 78.9611 47.9014L79.7469 48.52L80.5326 49.1386C81.6747 47.6878 82.2269 45.9426 82.2269 43.96H81.2269ZM79.7469 48.52L78.9594 47.9037C78.1482 48.9402 77.039 49.6544 75.577 50.0317L75.8269 51L76.0768 51.9683C77.9214 51.4922 79.4256 50.5531 80.5344 49.1363L79.7469 48.52ZM75.8269 51H74.8269V51.28H75.8269H76.8269V51H75.8269ZM75.8269 51.28L75.6549 52.2651C77.1962 52.5342 78.1455 53.0691 78.686 53.7447L79.4669 53.12L80.2477 52.4953C79.2949 51.3043 77.8176 50.6125 75.9989 50.2949L75.8269 51.28ZM79.4669 53.12L78.706 53.7689C79.2767 54.438 79.6269 55.4443 79.6269 56.92H80.6269H81.6269C81.6269 55.1424 81.2037 53.6154 80.2277 52.4711L79.4669 53.12ZM80.6269 56.92H79.6269V61.6H80.6269H81.6269V56.92H80.6269ZM80.6269 61.6H79.6269C79.6269 62.1499 79.6406 62.7251 79.6679 63.3254L80.6669 63.28L81.6658 63.2346C81.6398 62.6616 81.6269 62.1168 81.6269 61.6H80.6269ZM80.6669 63.28L79.671 63.3705C79.7356 64.0811 79.9292 64.7689 80.244 65.4299L81.1469 65L82.0497 64.5701C81.8312 64.1111 81.7048 63.6523 81.6628 63.1895L80.6669 63.28ZM81.1469 65V64H73.9069V65V66H81.1469V65ZM73.9069 65L74.8148 64.5809C74.7126 64.3595 74.6108 64.0011 74.5377 63.4649L73.5469 63.6L72.556 63.7351C72.6429 64.3723 72.7811 64.9471 72.9989 65.4191L73.9069 65ZM73.5469 63.6L74.5377 63.4649C74.4651 62.9328 74.4269 62.3125 74.4269 61.6H73.4269H72.4269C72.4269 62.3808 72.4686 63.0939 72.556 63.7351L73.5469 63.6ZM73.4269 61.6H74.4269V58.16H73.4269H72.4269V61.6H73.4269ZM73.4269 58.16H74.4269C74.4269 56.898 74.1011 55.7754 73.3254 54.9257L72.5869 55.6L71.8484 56.2743C72.1926 56.6513 72.4269 57.2354 72.4269 58.16H73.4269ZM72.5869 55.6L73.3551 54.9598C72.5135 53.9499 71.0151 53.64 69.3469 53.64V54.64V55.64C70.932 55.64 71.5936 55.9701 71.8187 56.2402L72.5869 55.6ZM69.3469 54.64V53.64H63.2669V54.64V55.64H69.3469V54.64ZM63.2669 54.64H62.2669V65H63.2669H64.2669V54.64H63.2669ZM63.2669 65V64H56.1069V65V66H63.2669V65ZM69.7069 41.72V40.72H63.2669V41.72V42.72H69.7069V41.72ZM63.2669 41.72H62.2669V49H63.2669H64.2669V41.72H63.2669ZM63.2669 49V50H69.7069V49V48H63.2669V49ZM69.7069 49V50C71.3201 50 72.7262 49.63 73.6417 48.6383L72.9069 47.96L72.1721 47.2817C71.8075 47.6767 71.0803 48 69.7069 48V49ZM72.9069 47.96L73.6543 48.6244C74.4749 47.7012 74.8669 46.5633 74.8669 45.28H73.8669H72.8669C72.8669 46.1301 72.6189 46.7788 72.1595 47.2956L72.9069 47.96ZM73.8669 45.28H74.8669C74.8669 43.7839 74.416 42.4839 73.2746 41.6968L72.7069 42.52L72.1391 43.3432C72.5444 43.6227 72.8669 44.1628 72.8669 45.28H73.8669ZM72.7069 42.52L73.2746 41.6968C72.29 41.0178 71.0749 40.72 69.7069 40.72V41.72V42.72C70.7922 42.72 71.577 42.9556 72.1391 43.3432L72.7069 42.52Z" fill="#1C1C21" mask="url(#path-2-inside-1_90019_94)"/>
</g>
<defs>
<filter id="filter0_ddi_90019_94" x="7.32019" y="30.0988" width="87.3027" height="55.9522" filterUnits="userSpaceOnUse" color-interpolation-filters="sRGB">
<feFlood flood-opacity="0" result="BackgroundImageFix"/>
<feColorMatrix in="SourceAlpha" type="matrix" values="0 0 0 0 0 0 0 0 0 0 0 0 0 0 0 0 0 0 127 0" result="hardAlpha"/>
<feMorphology radius="1" operator="dilate" in="SourceAlpha" result="effect1_dropShadow_90019_94"/>
<feOffset/>
<feComposite in2="hardAlpha" operator="out"/>
<feColorMatrix type="matrix" values="0 0 0 0 0.784314 0 0 0 0 0.858824 0 0 0 0 0.917647 0 0 0 1 0"/>
<feBlend mode="normal" in2="BackgroundImageFix" result="effect1_dropShadow_90019_94"/>
<feColorMatrix in="SourceAlpha" type="matrix" values="0 0 0 0 0 0 0 0 0 0 0 0 0 0 0 0 0 0 127 0" result="hardAlpha"/>
<feMorphology radius="5.74118" operator="erode" in="SourceAlpha" result="effect2_dropShadow_90019_94"/>
<feOffset dy="7.6549"/>
<feGaussianBlur stdDeviation="9.56865"/>
<feComposite in2="hardAlpha" operator="out"/>
<feColorMatrix type="matrix" values="0 0 0 0 0.788235 0 0 0 0 0.858824 0 0 0 0 0.917647 0 0 0 0.32 0"/>
<feBlend mode="normal" in2="effect1_dropShadow_90019_94" result="effect2_dropShadow_90019_94"/>
<feBlend mode="normal" in="SourceGraphic" in2="effect2_dropShadow_90019_94" result="shape"/>
<feColorMatrix in="SourceAlpha" type="matrix" values="0 0 0 0 0 0 0 0 0 0 0 0 0 0 0 0 0 0 127 0" result="hardAlpha"/>
<feOffset dy="3.82745"/>
<feGaussianBlur stdDeviation="4"/>
<feComposite in2="hardAlpha" operator="arithmetic" k2="-1" k3="1"/>
<feColorMatrix type="matrix" values="0 0 0 0 0.0470588 0 0 0 0 0.286275 0 0 0 0 0.52549 0 0 0 0.04 0"/>
<feBlend mode="normal" in2="shape" result="effect3_innerShadow_90019_94"/>
</filter>
<linearGradient id="paint0_linear_90019_94" x1="50" y1="0" x2="50" y2="100" gradientUnits="userSpaceOnUse">
<stop stop-color="#EBF3FA"/>
<stop offset="1" stop-color="#DFEDFA"/>
</linearGradient>
</defs>
</svg>
